<mxfile host="app.diagrams.net" modified="2021-07-04T09:10:46.308Z" agent="5.0 (Windows NT 10.0; Win64; x64) AppleWebKit/537.36 (KHTML, like Gecko) Chrome/91.0.4472.124 Safari/537.36" etag="wnJGqm-XV5uWKynIgK9v" version="14.7.7" type="github">
  <diagram id="wmAunS20a_fRSRR70MTY" name="Page-1">
    <mxGraphModel dx="665" dy="384" grid="1" gridSize="10" guides="1" tooltips="1" connect="1" arrows="1" fold="1" page="1" pageScale="1" pageWidth="850" pageHeight="1100" math="0" shadow="0">
      <root>
        <mxCell id="0" />
        <mxCell id="1" parent="0" />
        <mxCell id="-6ok1vAMN4OJt2o-XBp8-11" value="" style="rounded=0;whiteSpace=wrap;html=1;fontSize=9;align=left;fillColor=#fff2cc;strokeColor=#d6b656;" vertex="1" parent="1">
          <mxGeometry x="120" y="50" width="380" height="280" as="geometry" />
        </mxCell>
        <mxCell id="-6ok1vAMN4OJt2o-XBp8-1" value="Service 3" style="rounded=0;whiteSpace=wrap;html=1;fillColor=#dae8fc;strokeColor=#6c8ebf;" vertex="1" parent="1">
          <mxGeometry x="350" y="220" width="120" height="60" as="geometry" />
        </mxCell>
        <mxCell id="-6ok1vAMN4OJt2o-XBp8-2" value="Service 2" style="rounded=0;whiteSpace=wrap;html=1;fillColor=#dae8fc;strokeColor=#6c8ebf;" vertex="1" parent="1">
          <mxGeometry x="350" y="90" width="120" height="60" as="geometry" />
        </mxCell>
        <mxCell id="-6ok1vAMN4OJt2o-XBp8-3" value="Service 1" style="rounded=0;whiteSpace=wrap;html=1;fillColor=#f8cecc;strokeColor=#b85450;" vertex="1" parent="1">
          <mxGeometry x="140" y="160" width="120" height="60" as="geometry" />
        </mxCell>
        <mxCell id="-6ok1vAMN4OJt2o-XBp8-4" value="" style="endArrow=classic;html=1;exitX=1;exitY=0.5;exitDx=0;exitDy=0;entryX=0;entryY=1;entryDx=0;entryDy=0;" edge="1" parent="1" source="-6ok1vAMN4OJt2o-XBp8-3" target="-6ok1vAMN4OJt2o-XBp8-2">
          <mxGeometry width="50" height="50" relative="1" as="geometry">
            <mxPoint x="320" y="220" as="sourcePoint" />
            <mxPoint x="370" y="170" as="targetPoint" />
          </mxGeometry>
        </mxCell>
        <mxCell id="-6ok1vAMN4OJt2o-XBp8-5" value="" style="endArrow=classic;html=1;exitX=1;exitY=0.5;exitDx=0;exitDy=0;entryX=0;entryY=0;entryDx=0;entryDy=0;" edge="1" parent="1" source="-6ok1vAMN4OJt2o-XBp8-3" target="-6ok1vAMN4OJt2o-XBp8-1">
          <mxGeometry width="50" height="50" relative="1" as="geometry">
            <mxPoint x="320" y="220" as="sourcePoint" />
            <mxPoint x="370" y="170" as="targetPoint" />
          </mxGeometry>
        </mxCell>
        <mxCell id="-6ok1vAMN4OJt2o-XBp8-6" value="&lt;div&gt;&lt;b&gt;Registation&amp;nbsp;&lt;/b&gt;&lt;br&gt;&lt;/div&gt;&lt;div&gt;&lt;b&gt;Login&lt;/b&gt;&lt;/div&gt;&lt;div&gt;&lt;b&gt;Home page&lt;/b&gt;&lt;/div&gt;- Search by city name&lt;br style=&quot;font-size: 9px&quot;&gt;-search by pin code&lt;br style=&quot;font-size: 9px&quot;&gt;- seach by Geo coordinate" style="text;html=1;strokeColor=none;fillColor=none;align=left;verticalAlign=middle;whiteSpace=wrap;rounded=0;fontSize=9;" vertex="1" parent="1">
          <mxGeometry x="140" y="220" width="100" height="80" as="geometry" />
        </mxCell>
        <mxCell id="-6ok1vAMN4OJt2o-XBp8-8" value="Communication with&amp;nbsp; weather API" style="text;html=1;strokeColor=none;fillColor=none;align=left;verticalAlign=middle;whiteSpace=wrap;rounded=0;fontSize=9;" vertex="1" parent="1">
          <mxGeometry x="350" y="160" width="120" height="20" as="geometry" />
        </mxCell>
        <mxCell id="-6ok1vAMN4OJt2o-XBp8-9" value="get History from DB&lt;br&gt;" style="text;html=1;strokeColor=none;fillColor=none;align=left;verticalAlign=top;whiteSpace=wrap;rounded=0;fontSize=9;" vertex="1" parent="1">
          <mxGeometry x="350" y="280" width="100" height="30" as="geometry" />
        </mxCell>
      </root>
    </mxGraphModel>
  </diagram>
</mxfile>
